<svg xmlns="http://www.w3.org/2000/svg" viewBox="0 0 1750 1000"><g style="opacity:0.30000000000000004"><polygon points="799.42 0 678.04 0 875 500 799.42 0" style="fill:#fff"/><polygon points="1070.99 0 949.72 0 875 500 1070.99 0" style="fill:#fff"/><polygon points="475.91 0 246.4 0 875 500 475.91 0" style="fill:#fff"/><polygon points="1501.43 0 1272.7 0 875 500 1501.43 0" style="fill:#fff"/><polygon points="1750 367.73 1750 155.31 875 500 1750 367.73" style="fill:#fff"/><polygon points="950.58 1000 1071.96 1000 875 500 950.58 1000" style="fill:#fff"/><polygon points="1274.09 1000 1503.61 1000 875 500 1274.09 1000" style="fill:#fff"/><polygon points="875 500 1750 842.98 1750 630.76 875 500" style="fill:#fff"/><polygon points="0 157.02 0 369.24 875 500 0 157.02" style="fill:#fff"/><polygon points="0 632.27 0 844.68 875 500 0 632.27" style="fill:#fff"/><polygon points="248.57 1000 477.29 1000 875 500 248.57 1000" style="fill:#fff"/><polygon points="679.01 1000 800.28 1000 875 500 679.01 1000" style="fill:#fff"/></g></svg>